HIERARCHY
ROOT Hips
{
  OFFSET 55.7205 91.6312 36.6645
  CHANNELS 6 Xposition Yposition Zposition Zrotation Xrotation Yrotation
  JOINT spine
  {
    OFFSET 0 6.84637 0.3937
    CHANNELS 3 Zrotation Xrotation Yrotation
    JOINT spine1
    {
      OFFSET 0 9.49621 0
      CHANNELS 3 Zrotation Xrotation Yrotation
      JOINT spine2
      {
        OFFSET 0 9.09909 0
        CHANNELS 3 Zrotation Xrotation Yrotation
        JOINT Neck
        {
          OFFSET 0 23.3612 1.11378
          CHANNELS 3 Zrotation Xrotation Yrotation
          JOINT Head
          {
            OFFSET 0 7.05802 0
            CHANNELS 3 Zrotation Xrotation Yrotation
            End Site
            {
              OFFSET 0 17.0844 -5.63419
            }
          }
        }
        JOINT RightShoulder
        {
          OFFSET -3.83136 9.82631 -0.533491
          CHANNELS 3 Zrotation Xrotation Yrotation
          JOINT RightArm
          {
            OFFSET 0 12.8881 0
            CHANNELS 3 Zrotation Xrotation Yrotation
            JOINT RightArmRoll
            {
              OFFSET 0 6.50617 0
              CHANNELS 3 Zrotation Xrotation Yrotation
              JOINT RightForeArm
              {
                OFFSET 0 18.9501 0
                CHANNELS 3 Zrotation Xrotation Yrotation
                JOINT RightForeArmRoll
                {
                  OFFSET 0 7.30092 0
                  CHANNELS 3 Zrotation Xrotation Yrotation
                  JOINT RightHand
                  {
                    OFFSET 0 14.6514 0
                    CHANNELS 3 Zrotation Xrotation Yrotation
                    End Site
                    {
                      OFFSET 0 0 0
                    }
                  }
                }
              }
            }
          }
        }
        JOINT LeftShoulder
        {
          OFFSET 3.83136 9.82631 -0.533491
          CHANNELS 3 Zrotation Xrotation Yrotation
          JOINT LeftArm
          {
            OFFSET 0 12.8881 0
            CHANNELS 3 Zrotation Xrotation Yrotation
            JOINT LeftArmRoll
            {
              OFFSET 0 6.50617 0
              CHANNELS 3 Zrotation Xrotation Yrotation
              JOINT LeftForeArm
              {
                OFFSET 0 18.9501 0
                CHANNELS 3 Zrotation Xrotation Yrotation
                JOINT LeftForeArmRoll
                {
                  OFFSET 0 7.30092 0
                  CHANNELS 3 Zrotation Xrotation Yrotation
                  JOINT LeftHand
                  {
                    OFFSET 0 14.6514 0
                    CHANNELS 3 Zrotation Xrotation Yrotation
                    End Site
                    {
                      OFFSET 0 0 0
                    }
                  }
                }
              }
            }
          }
        }
      }
    }
  }
  JOINT RightUpLeg
  {
    OFFSET -6.06837 -1.11278 -0.933477
    CHANNELS 3 Zrotation Xrotation Yrotation
    JOINT RightUpLegRoll
    {
      OFFSET 0 17.1796 0
      CHANNELS 3 Zrotation Xrotation Yrotation
      JOINT RightLeg
      {
        OFFSET 0 -21.2743 0
        CHANNELS 3 Zrotation Xrotation Yrotation
        JOINT RightLegRoll
        {
          OFFSET 0 21.3439 0
          CHANNELS 3 Zrotation Xrotation Yrotation
          JOINT RightFoot
          {
            OFFSET 0 17.7652 0
            CHANNELS 3 Zrotation Xrotation Yrotation
            JOINT RightToeBase
            {
              OFFSET 0 14.8508 0
              CHANNELS 3 Zrotation Xrotation Yrotation
              End Site
              {
                OFFSET 0.0062947 7.19213 -0.829005
              }
            }
          }
        }
      }
    }
  }
  JOINT LeftUpLeg
  {
    OFFSET 6.06837 -1.11278 -0.933477
    CHANNELS 3 Zrotation Xrotation Yrotation
    JOINT LeftUpLegRoll
    {
      OFFSET 0 17.1797 0
      CHANNELS 3 Zrotation Xrotation Yrotation
      JOINT LeftLeg
      {
        OFFSET 0 21.2742 0
        CHANNELS 3 Zrotation Xrotation Yrotation
        JOINT LeftLegRoll
        {
          OFFSET 0 21.5412 0
          CHANNELS 3 Zrotation Xrotation Yrotation
          JOINT LeftFoot
          {
            OFFSET 0 17.5679 0
            CHANNELS 3 Zrotation Xrotation Yrotation
            JOINT LeftToeBase
            {
              OFFSET 0 14.8508 0
              CHANNELS 3 Zrotation Xrotation Yrotation
              End Site
              {
                OFFSET -0.0282102 7.19214 -0.829004
              }
            }
          }
        }
      }
    }
  }
}
MOTION
Frames: 4
Frame Time: 0.00208333
54.357 82.0959 16.2725 -6.41567 33.6881 0.364231 0.332748 -0.647496 0.413761 0.664222 2.71006 0.786109 0.655492 4.35501 0.775652 15.2531 -20.5834 1.00758 -7.51168 5.46598 0.704949 71.5579 5.20432 1.00073 99.3611 41.5382 -27.0544 5.95572e-007 2.30176e-007 -1.71385e-006 32.7817 11.2424 -1.31657 -4.28194e-007 1.93458e-006 -3.00704 8.02899 -4.95098 0.697459 -46.4961 -4.65665 1.94176 -142.545 44.1453 16.5985 -9.18553e-007 1.72249e-006 5.61561e-006 -12.5072 0.0926734 2.47994 3.23275e-006 -2.06825e-006 3.30347 -8.03006 -4.95149 -0.69778 -172.662 70.3039 -8.6165 -180 1.52582e-005 179.507 175.63 39.5599 -179.824 -5.31001e-006 -1.63567e-006 0.669556 -17.3978 66.1587 18.1284 8.13649 25.2326 -3.48773 -138.825 67.6873 -38.0132 4.54188e-006 -4.6773e-006 -0.424367 -8.09542 -47.1424 -1.85591 -4.13338e-007 -2.09623e-006 -0.647437 19.6924 68.9729 -20.3839 -8.13649 25.2327 3.48773 
54.3525 82.1766 16.3732 -6.40261 33.5666 0.376435 0.332842 -0.654319 0.41245 0.663757 2.69641 0.783016 0.65505 4.34136 0.77257 15.2623 -20.6232 1.0219 -7.47583 5.57056 0.72271 71.6238 5.21586 0.995275 99.3811 41.5013 -26.8985 5.95572e-007 2.30176e-007 -1.71385e-006 32.7247 11.0565 -1.26482 -4.28194e-007 1.93458e-006 -3.00704 8.02899 -4.95098 0.697459 -46.5165 -4.68822 1.96816 -142.669 44.0928 16.312 -9.18553e-007 1.72249e-006 5.61561e-006 -12.1626 0.0901097 2.43174 3.23275e-006 -2.06825e-006 3.30356 -8.03006 -4.95149 -0.69778 -172.728 69.9911 -8.57812 -180 1.52582e-005 179.506 175.683 39.3779 -179.845 -5.31001e-006 -1.63567e-006 0.664899 -17.3916 66.1531 18.1243 8.13649 25.2326 -3.48773 -139.397 67.4578 -37.4192 4.54188e-006 -4.6773e-006 -0.426332 -8.0759 -46.9552 -1.84204 -4.13338e-007 -2.09623e-006 -0.643634 19.6923 68.9762 -20.3866 -8.13649 25.2327 3.48773 
54.3414 82.2684 16.4667 -6.38853 33.4438 0.388669 0.332804 -0.660962 0.410932 0.663011 2.68311 0.779519 0.654331 4.32806 0.769089 15.2687 -20.6652 1.03766 -7.43616 5.67811 0.742026 71.6893 5.22718 0.989781 99.4008 41.4638 -26.7475 5.95572e-007 2.30176e-007 -1.71385e-006 32.6664 10.8732 -1.21337 -4.28194e-007 1.93458e-006 -3.00704 8.02899 -4.95098 0.697459 -46.5365 -4.72169 1.99602 -142.793 44.0385 16.0251 -9.18553e-007 1.72249e-006 5.61561e-006 -11.8175 0.0875397 2.3817 3.23275e-006 -2.06825e-006 3.30357 -8.03006 -4.95149 -0.69778 -172.795 69.6768 -8.53893 -180 1.52582e-005 179.506 175.738 39.1953 -179.865 -5.31001e-006 -1.63567e-006 0.660233 -17.3853 66.1473 18.1201 8.13649 25.2326 -3.48773 -139.962 67.2259 -36.8316 4.54188e-006 -4.6773e-006 -0.428307 -8.05559 -46.7682 -1.82785 -4.13338e-007 -2.09623e-006 -0.639871 19.6926 68.9798 -20.3896 -8.13649 25.2327 3.48773 
54.3392 82.3469 16.5688 -6.37373 33.3201 0.401071 0.332673 -0.667535 0.409255 0.662079 2.66995 0.775723 0.65343 4.31491 0.765311 15.2733 -20.708 1.05445 -7.3943 5.78725 0.762533 71.7544 5.23844 0.984285 99.4197 41.4251 -26.6007 5.95572e-007 2.30176e-007 -1.71385e-006 32.6074 10.6934 -1.16258 -4.28194e-007 1.93458e-006 -3.00704 8.02899 -4.95098 0.697459 -46.5565 -4.75643 2.02488 -142.918 43.9827 15.7372 -9.18553e-007 1.72249e-006 5.61561e-006 -11.4719 0.0849634 2.33 3.23275e-006 -2.06825e-006 3.30352 -8.03006 -4.95149 -0.69778 -172.862 69.3615 -8.49918 -180 1.52582e-005 179.505 175.792 39.0122 -179.886 -5.31001e-006 -1.63567e-006 0.655558 -17.379 66.1415 18.1157 8.13649 25.2326 -3.48773 -140.52 66.9918 -36.2517 4.54188e-006 -4.6773e-006 -0.430291 -8.03443 -46.581 -1.81329 -4.13338e-007 -2.09623e-006 -0.63615 19.6931 68.9835 -20.3927 -8.13649 25.2327 3.48773 
